<!--?xml version="1.0" encoding="utf-8"?-->
<!-- Generator: Adobe Illustrator 18.1.1, SVG Export Plug-In . SVG Version: 6.00 Build 0)  -->

<svg version="1.1" id="_x32_" xmlns="http://www.w3.org/2000/svg" xmlns:xlink="http://www.w3.org/1999/xlink" x="0px" y="0px" viewBox="0 0 512 512" style="width: 256px; height: 256px; opacity: 1;" xml:space="preserve">
<style type="text/css">
	.st0{fill:#4B4B4B;}
</style>
<g>
	<path class="st0" d="M487.379,344.399c-1.771-5.989-5.322-16.856-11.749-36.353c-20.818-63.816-134.955-287.63-134.955-287.63
		C334.247,6.459,319.617-1.53,304.339,0.245L163.175,17.539c-9.545,1.102-17.748,6.855-22.4,15.272c0,0-16.379,26.823-23.261,43.443
		c-6.861,16.62-2.877,33.24,11.08,42.994c13.957,9.733,80.437,26.363,93.078,20.822c21.059-9.314,31.92-51.4,31.92-51.4l31.898-5.54
		c0,0,13.31,45.85,11.08,86.191c-2.877,49.861,0.358,70.64,7.24,113.624c-8.732,3.006-17.888-8.01-36.929-25.86
		c-59.09-55.4-133.126-33.657-165.987,14.845c-8.636-7.316-40.85-11.144-77.779-14.845V512c62.79-7.379,90.848-50.32,90.848-50.32
		c34.369,6.855,87.372,2.235,131.19-5.177c80.956-13.69,134.735-44.962,134.735-44.962l89.101-30.138
		C484.266,376.088,492.464,359.682,487.379,344.399z" style="fill: rgb(59, 43, 43);"></path>
</g>
</svg>
