<svg xmlns="http://www.w3.org/2000/svg" xmlns:xlink="http://www.w3.org/1999/xlink" width="48" height="48" viewBox="0 0 48 48">
  <defs>
    <clipPath id="clip-path">
      <rect id="長方形_30" data-name="長方形 30" width="48" height="48" transform="translate(114 866.58)" fill="#fff" stroke="#3b2b2b" stroke-width="1"/>
    </clipPath>
  </defs>
  <g id="マスクグループ_10" data-name="マスクグループ 10" transform="translate(-114 -866.58)" clip-path="url(#clip-path)">
    <g id="JSアイコン" transform="translate(114 866.58)">
      <path id="パス_49" data-name="パス 49" d="M35.476,0H18.292l-.873.873L5.346,12.947l-.873.873V39.947A8.062,8.062,0,0,0,12.525,48H35.476a8.061,8.061,0,0,0,8.051-8.053V8.053A8.061,8.061,0,0,0,35.476,0Zm5.07,39.947a5.07,5.07,0,0,1-5.07,5.071H12.525a5.071,5.071,0,0,1-5.072-5.071V15.055H15.3a4.226,4.226,0,0,0,4.226-4.225V2.982H35.476a5.07,5.07,0,0,1,5.07,5.071Z" fill="#ffe4e5" stroke="#3b2b2b" stroke-width="0.094"/>
      <path id="パス_50" data-name="パス 50" d="M21.125,23.622a.914.914,0,0,0-.93.993v4.763c0,1.07-.471,1.464-1.185,1.464a1.43,1.43,0,0,1-.776-.229,1.244,1.244,0,0,0-.713-.28.794.794,0,0,0-.827.789.994.994,0,0,0,.255.649,2.889,2.889,0,0,0,2,.726c1.986,0,3.12-1.121,3.12-3.247V24.615A.917.917,0,0,0,21.125,23.622Z" fill="#ffe4e5" stroke="#3b2b2b" stroke-width="0.094"/>
      <path id="パス_51" data-name="パス 51" d="M27.493,27.149l-.458-.064c-1.007-.14-1.35-.471-1.35-.955,0-.547.407-.93,1.17-.93a3.514,3.514,0,0,1,1.49.357,1.258,1.258,0,0,0,.549.14.8.8,0,0,0,.814-.815.851.851,0,0,0-.445-.751,5.019,5.019,0,0,0-2.419-.573c-1.872,0-3.069,1.056-3.069,2.648,0,1.528.967,2.356,2.737,2.6l.458.063c1.032.14,1.337.458,1.337.967,0,.6-.5,1.019-1.413,1.019a3.576,3.576,0,0,1-1.859-.56,1.1,1.1,0,0,0-.549-.153.822.822,0,0,0-.84.828.938.938,0,0,0,.446.789,5.171,5.171,0,0,0,2.724.738c2.254,0,3.4-1.159,3.4-2.725S29.288,27.4,27.493,27.149Z" fill="#ffe4e5" stroke="#3b2b2b" stroke-width="0.094"/>
    </g>
  </g>
</svg>
