<!--?xml version="1.0" encoding="utf-8"?-->
<!-- Generator: Adobe Illustrator 18.1.1, SVG Export Plug-In . SVG Version: 6.00 Build 0)  -->

<svg version="1.1" id="_x32_" xmlns="http://www.w3.org/2000/svg" xmlns:xlink="http://www.w3.org/1999/xlink" x="0px" y="0px" viewBox="0 0 512 512" style="width: 256px; height: 256px; opacity: 1;" xml:space="preserve">
<style type="text/css">
	.st0{fill:#4B4B4B;}
</style>
<g>
	<path class="st0" d="M211.596,252.148v129.14h-44.627c0,19.814,14.886,35.874,33.252,35.874h249.575
		c18.366,0,33.268-16.06,33.268-35.874H438.43v-129.14c0-5.28-4.286-9.56-9.567-9.56H221.155
		C215.875,242.589,211.596,246.868,211.596,252.148z M354.652,267.761c0,11.561-10.278,23.131-21.848,20.572
		C332.804,288.334,334.087,267.761,354.652,267.761z M314.93,294.123c8.056-2.582,16.927,0.852,18.46,5.608
		c1.628-4.717,10.577-7.963,18.571-5.202c3.074,1.064,5.953,2.784,8.401,5.1c-7.768,3.646-13.165,11.514-13.165,20.667
		c0,9.575,5.898,17.757,14.252,21.152c-7.001,10.029-18.32,14.965-28.677,14.855c-15.825-0.164-33.738-12.14-34.614-35.834
		C297.643,306.42,305.402,297.189,314.93,294.123z" style="fill: rgb(59, 43, 43);"></path>
	<path class="st0" d="M201.341,167.384c35.803,0,64.824-29.021,64.824-64.816c0-35.795-29.022-64.817-64.824-64.817
		c-35.788,0-64.816,29.022-64.816,64.817C136.524,138.363,165.553,167.384,201.341,167.384z" style="fill: rgb(59, 43, 43);"></path>
	<rect y="434.723" class="st0" width="512" height="39.527" style="fill: rgb(59, 43, 43);"></rect>
	<path class="st0" d="M116.89,377.431l1.072,39.73h48.53c-9.128-8.957-14.878-21.707-14.878-35.874v-13.173h44.635V252.148
		c0-12.54,10.2-22.74,22.739-22.74h113.566c-35.412-29.718-92.43-31.86-123.876-31.86c-46.004,0-129.758,4.537-137.377,93.509
		L60.506,417.162h47.153L116.89,377.431z" style="fill: rgb(59, 43, 43);"></path>
</g>
</svg>
