<svg xmlns="http://www.w3.org/2000/svg" xmlns:xlink="http://www.w3.org/1999/xlink" width="149" height="142" viewBox="0 0 149 142">
  <defs>
    <clipPath id="clip-path">
      <rect id="長方形_22" data-name="長方形 22" width="149" height="142" transform="translate(106 2618)" fill="#fff"/>
    </clipPath>
  </defs>
  <g id="マスクグループ_4" data-name="マスクグループ 4" transform="translate(-106 -2618)" clip-path="url(#clip-path)">
    <g id="面接アイコン8_1_" data-name="面接アイコン8 (1)" transform="translate(106 2614.5)">
      <path id="パス_16" data-name="パス 16" d="M91.861,43.516l-4.123,10.3,2.979-.366C101,52.165,110.85,48.314,115.526,46.3a24.368,24.368,0,0,0,11.036-7.821,20.525,20.525,0,0,0,4.467-12.718,20.217,20.217,0,0,0-2-8.759,22.893,22.893,0,0,0-8.982-9.665,26.53,26.53,0,0,0-13.584-3.674A26,26,0,0,0,89.246,9.982,22.053,22.053,0,0,0,83.9,17a20.23,20.23,0,0,0,1.182,19.654A23.056,23.056,0,0,0,91.861,43.516ZM86.928,18.8A19.2,19.2,0,0,1,94.5,10.711a23.343,23.343,0,0,1,11.968-3.219,22.772,22.772,0,0,1,15.094,5.5,18.4,18.4,0,0,1,4.447,5.816,16.073,16.073,0,0,1,1.594,6.953,16.439,16.439,0,0,1-3.619,10.195,20.974,20.974,0,0,1-9.592,6.732l-.055.015-.053.022a97.486,97.486,0,0,1-20.934,6.465l2.95-7.359L94.852,41a19.845,19.845,0,0,1-6.964-6.553,16.219,16.219,0,0,1-2.555-8.691A16.011,16.011,0,0,1,86.928,18.8Z" fill="#3b2b2b"/>
      <path id="パス_17" data-name="パス 17" d="M96.778,29.276A2.837,2.837,0,0,0,99.448,26.3a2.683,2.683,0,1,0-5.335,0A2.838,2.838,0,0,0,96.778,29.276Z" fill="#3b2b2b"/>
      <path id="パス_18" data-name="パス 18" d="M107.07,29.276a2.838,2.838,0,0,0,2.667-2.981,2.685,2.685,0,1,0-5.339,0A2.839,2.839,0,0,0,107.07,29.276Z" fill="#3b2b2b"/>
      <path id="パス_19" data-name="パス 19" d="M117.355,29.276a2.836,2.836,0,0,0,2.667-2.981,2.683,2.683,0,1,0-5.335,0A2.836,2.836,0,0,0,117.355,29.276Z" fill="#3b2b2b"/>
      <path id="パス_20" data-name="パス 20" d="M148.738,140.87l-23.7-55.053a3.208,3.208,0,0,0-2.946-1.939H26.907a3.21,3.21,0,0,0-2.946,1.936L.26,140.87a3.2,3.2,0,0,0,2.945,4.471h44.66c3.811-6.445,10.387-11.122,19.612-12.634a21.214,21.214,0,0,0,13.5,0c9.221,1.512,15.8,6.189,19.607,12.634H145.8a3.2,3.2,0,0,0,2.941-4.471ZM90.781,112.349a16.556,16.556,0,1,1-33.112,0v-4.7a16.556,16.556,0,1,1,33.112,0Z" fill="#3b2b2b"/>
      <path id="パス_21" data-name="パス 21" d="M92.17,76.926c0-8.04-4.719-14.664-13.732-16.143a12.372,12.372,0,0,1-7.883,0c-9.013,1.479-13.73,8.1-13.73,16.143H92.17Z" fill="#3b2b2b"/>
      <path id="パス_22" data-name="パス 22" d="M74.5,58.561A9.672,9.672,0,0,0,84.17,48.89V46.146a9.673,9.673,0,1,0-19.347,0V48.89A9.674,9.674,0,0,0,74.5,58.561Z" fill="#3b2b2b"/>
    </g>
  </g>
</svg>
