<svg xmlns="http://www.w3.org/2000/svg" xmlns:xlink="http://www.w3.org/1999/xlink" width="64" height="64" viewBox="0 0 64 64">
  <defs>
    <clipPath id="clip-path">
      <rect id="長方形_28" data-name="長方形 28" width="64" height="64" transform="translate(178 771)" fill="#fff" stroke="#3b2b2b" stroke-width="1"/>
    </clipPath>
  </defs>
  <g id="マスクグループ_9" data-name="マスクグループ 9" transform="translate(-178 -771)" clip-path="url(#clip-path)">
    <g id="CSSアイコン" transform="translate(183.963 771)">
      <path id="パス_45" data-name="パス 45" d="M45.811,0H22.9L21.734,1.164l-16.1,16.1L4.472,18.427V53.263A10.749,10.749,0,0,0,15.209,64h30.6A10.749,10.749,0,0,0,56.546,53.263V10.737A10.748,10.748,0,0,0,45.811,0Zm6.76,53.263a6.761,6.761,0,0,1-6.76,6.761h-30.6a6.761,6.761,0,0,1-6.762-6.761V20.074H18.912a5.635,5.635,0,0,0,5.635-5.634V3.975H45.811a6.761,6.761,0,0,1,6.76,6.761Z" transform="translate(-4.472)" fill="#ffe4e5" stroke="#3b2b2b" stroke-width="0.094"/>
      <path id="パス_46" data-name="パス 46" d="M17.009,25.766a1.737,1.737,0,0,1,1.562.848,1.276,1.276,0,0,0,1.1.646,1.1,1.1,0,0,0,1.138-1.121,1.469,1.469,0,0,0-.222-.747,3.965,3.965,0,0,0-3.582-1.834,3.993,3.993,0,0,0-4.126,2.836,9.254,9.254,0,0,0-.321,3.124,9.25,9.25,0,0,0,.321,3.124,3.993,3.993,0,0,0,4.126,2.836,3.965,3.965,0,0,0,3.582-1.834,1.469,1.469,0,0,0,.222-.747,1.1,1.1,0,0,0-1.138-1.121,1.276,1.276,0,0,0-1.1.645,1.736,1.736,0,0,1-1.562.849A1.685,1.685,0,0,1,15.278,32a7.9,7.9,0,0,1-.187-2.479,7.9,7.9,0,0,1,.187-2.479A1.685,1.685,0,0,1,17.009,25.766Z" transform="translate(-1.776 7.853)" fill="#ffe4e5" stroke="#3b2b2b" stroke-width="0.094"/>
      <path id="パス_47" data-name="パス 47" d="M25.2,28.347l-.611-.085c-1.341-.187-1.8-.627-1.8-1.273,0-.73.543-1.239,1.562-1.239a4.7,4.7,0,0,1,1.986.476,1.664,1.664,0,0,0,.73.187,1.063,1.063,0,0,0,1.087-1.087,1.133,1.133,0,0,0-.6-1,6.687,6.687,0,0,0-3.226-.764c-2.5,0-4.092,1.409-4.092,3.531,0,2.038,1.29,3.141,3.65,3.464l.613.085c1.374.187,1.782.611,1.782,1.29,0,.8-.663,1.359-1.885,1.359a4.777,4.777,0,0,1-2.479-.747,1.463,1.463,0,0,0-.73-.2,1.094,1.094,0,0,0-1.121,1.1,1.253,1.253,0,0,0,.593,1.052,6.9,6.9,0,0,0,3.634.985c3,0,4.533-1.545,4.533-3.633S27.6,28.686,25.2,28.347Z" transform="translate(0.728 7.853)" fill="#ffe4e5" stroke="#3b2b2b" stroke-width="0.094"/>
      <path id="パス_48" data-name="パス 48" d="M33.035,28.347l-.611-.085c-1.342-.187-1.8-.627-1.8-1.273,0-.73.543-1.239,1.56-1.239a4.686,4.686,0,0,1,1.986.476,1.677,1.677,0,0,0,.731.187,1.062,1.062,0,0,0,1.086-1.087,1.135,1.135,0,0,0-.593-1,6.692,6.692,0,0,0-3.226-.764c-2.5,0-4.092,1.409-4.092,3.531,0,2.038,1.29,3.141,3.65,3.464l.611.085c1.375.187,1.782.611,1.782,1.29,0,.8-.661,1.359-1.883,1.359a4.768,4.768,0,0,1-2.479-.747,1.465,1.465,0,0,0-.731-.2,1.1,1.1,0,0,0-1.121,1.1,1.25,1.25,0,0,0,.6,1.052,6.9,6.9,0,0,0,3.632.985c3.006,0,4.533-1.545,4.533-3.633S35.428,28.686,33.035,28.347Z" transform="translate(3.339 7.853)" fill="#ffe4e5" stroke="#3b2b2b" stroke-width="0.094"/>
    </g>
  </g>
</svg>
