<svg xmlns="http://www.w3.org/2000/svg" xmlns:xlink="http://www.w3.org/1999/xlink" width="64" height="64" viewBox="0 0 64 64">
  <defs>
    <clipPath id="clip-path">
      <rect id="長方形_27" data-name="長方形 27" width="64" height="64" transform="translate(114 771)" fill="#fff" stroke="#3b2b2b" stroke-width="1"/>
    </clipPath>
  </defs>
  <g id="マスクグループ_8" data-name="マスクグループ 8" transform="translate(-114 -771)" clip-path="url(#clip-path)">
    <g id="HTMLアイコン" transform="translate(119.963 771)">
      <path id="パス_40" data-name="パス 40" d="M45.811,0H22.9L21.734,1.164l-16.1,16.1L4.472,18.427V53.263A10.749,10.749,0,0,0,15.209,64h30.6A10.749,10.749,0,0,0,56.546,53.263V10.737A10.748,10.748,0,0,0,45.811,0Zm6.76,53.263a6.761,6.761,0,0,1-6.76,6.761h-30.6a6.761,6.761,0,0,1-6.762-6.761V20.074H18.912a5.635,5.635,0,0,0,5.635-5.634V3.975H45.811a6.761,6.761,0,0,1,6.76,6.761Z" transform="translate(-4.472)" fill="#ffe4e5" stroke="#3b2b2b" stroke-width="0.094"/>
      <path id="パス_41" data-name="パス 41" d="M17.021,23.737a1.091,1.091,0,0,0-1.108,1.185v2.932a.081.081,0,0,1-.091.092H12.448a.081.081,0,0,1-.091-.092V24.922a1.118,1.118,0,1,0-2.233,0v8.143a1.082,1.082,0,0,0,1.108,1.184,1.1,1.1,0,0,0,1.124-1.184V30.027a.081.081,0,0,1,.091-.092h3.374a.081.081,0,0,1,.091.092v3.038a1.118,1.118,0,1,0,2.232,0V24.922A1.094,1.094,0,0,0,17.021,23.737Z" transform="translate(-2.589 7.912)" fill="#ffe4e5" stroke="#3b2b2b" stroke-width="0.094"/>
      <path id="パス_42" data-name="パス 42" d="M23.813,23.805H17.9a1,1,0,1,0,0,1.99H19.65a.08.08,0,0,1,.091.091v7.156a1.119,1.119,0,1,0,2.234,0V25.886a.08.08,0,0,1,.091-.091h1.747a1,1,0,1,0,0-1.99Z" transform="translate(-0.37 7.935)" fill="#ffe4e5" stroke="#3b2b2b" stroke-width="0.094"/>
      <path id="パス_43" data-name="パス 43" d="M31.936,23.737c-.668,0-1.033.365-1.367,1.155l-2.157,4.983h-.061l-2.2-4.983c-.349-.79-.714-1.155-1.382-1.155a1.2,1.2,0,0,0-1.231,1.337v8.1a1.02,1.02,0,1,0,2.037,0V28.188h.075l1.611,3.707c.318.73.576.943,1.093.943s.775-.213,1.094-.943l1.6-3.707h.075v4.983a1.02,1.02,0,1,0,2.037,0v-8.1A1.193,1.193,0,0,0,31.936,23.737Z" transform="translate(1.882 7.912)" fill="#ffe4e5" stroke="#3b2b2b" stroke-width="0.094"/>
      <path id="パス_44" data-name="パス 44" d="M38,32.168H34.326a.08.08,0,0,1-.091-.092V24.922a1.118,1.118,0,1,0-2.232,0v8.112a1.06,1.06,0,0,0,1.124,1.124H38a1,1,0,1,0,0-1.99Z" transform="translate(4.704 7.912)" fill="#ffe4e5" stroke="#3b2b2b" stroke-width="0.094"/>
    </g>
  </g>
</svg>
